<?xml version="1.0" encoding="UTF-8"?>
<svg xmlns="http://www.w3.org/2000/svg" xmlns:xlink="http://www.w3.org/1999/xlink" width="192pt" height="192pt" viewBox="0 0 192 192" version="1.1">
<g id="surface6">
<path style=" stroke:none;fill-rule:nonzero;fill:rgb(0%,0%,0%);fill-opacity:1;" d="M 102.976562 13.351562 C 84.226562 23.476562 48.902344 79.652344 40.875 112.050781 C 35.925781 132.074219 36 138.074219 41.101562 142.574219 C 44.851562 145.875 48.078125 145.347656 57.675781 139.949219 C 64.125 136.273438 94.125 115.050781 98.699219 110.925781 C 100.273438 109.425781 101.625 108.976562 100.875 110.175781 C 100.199219 111.375 100.425781 136.726562 101.101562 137.402344 C 102.078125 138.378906 102.601562 134.175781 103.203125 119.851562 L 103.726562 107.402344 L 114.300781 99.453125 C 123.675781 92.402344 124.875 91.726562 125.027344 93.226562 C 125.253906 94.875 129.003906 160.425781 130.503906 187.5 C 130.878906 195.148438 131.253906 205.425781 131.253906 210.375 C 131.253906 220.351562 132.230469 223.875 133.203125 217.800781 C 134.101562 212.625 133.878906 174.449219 132.828125 155.25 C 132.378906 146.398438 131.253906 127.800781 130.429688 114 L 128.855469 88.875 L 131.332031 86.851562 C 132.757812 85.800781 143.480469 77.550781 155.257812 68.550781 C 183.90625 46.726562 197.257812 36 204.007812 29.324219 C 210.984375 22.5 210.15625 23.023438 196.507812 34.199219 C 185.933594 42.898438 129.082031 85.125 128.632812 84.597656 C 128.558594 84.449219 127.882812 76.121094 127.207031 66.074219 C 125.558594 42 123.683594 32.699219 119.78125 30.449219 C 116.332031 28.425781 112.132812 38.925781 107.707031 60.523438 C 105.082031 73.199219 102.53125 89.472656 101.558594 99.597656 L 101.035156 105.074219 L 89.335938 113.550781 C 66.835938 129.824219 61.136719 133.726562 55.511719 136.574219 C 47.863281 140.550781 46.4375 140.773438 43.886719 138.597656 C 38.261719 133.722656 42.160156 114.371094 54.085938 87.824219 C 64.210938 65.550781 72.3125 51.074219 81.910156 38.097656 C 87.160156 30.972656 100.734375 16.796875 104.183594 14.773438 C 106.285156 13.5 106.582031 13.5 106.957031 14.625 C 108.308594 18 100.507812 37.574219 95.558594 43.425781 C 93.160156 46.351562 91.507812 46.425781 91.433594 43.652344 L 91.359375 41.628906 L 90.757812 43.503906 C 89.707031 46.878906 89.933594 48.003906 91.582031 48.003906 C 96.980469 48.003906 109.355469 24.230469 108.605469 15.304688 C 108.304688 11.855469 106.730469 11.328125 102.980469 13.355469 Z M 120.75 37.652344 C 121.726562 40.503906 122.550781 49.503906 123.824219 71.851562 C 124.722656 87.300781 124.648438 87.828125 123.300781 88.875 C 122.550781 89.398438 117.902344 92.773438 113.101562 96.300781 C 102.902344 103.726562 103.652344 104.402344 105.375 89.625 C 108.601562 61.875 115.425781 35.25 119.25 35.25 C 119.625 35.25 120.226562 36.375 120.75 37.648438 Z M 120.75 37.652344 "/>
</g>
</svg>
